<svg xmlns="http://www.w3.org/2000/svg" version="1.1" xmlns:xlink="http://www.w3.org/1999/xlink" xmlns:svgjs="http://svgjs.dev/svgjs" width="2000" height="1500" viewBox="0 0 2000 1500"><rect width="2000" height="1500" fill="#14293a"></rect><g transform="matrix(0.75,0,0,0.75,249.090909090909,362.18768907563026)"><svg viewBox="0 0 396 204" data-background-color="#14293a" preserveAspectRatio="xMidYMid meet" height="1030" width="2000" xmlns="http://www.w3.org/2000/svg" xmlns:xlink="http://www.w3.org/1999/xlink"><g id="tight-bounds" transform="matrix(1,0,0,1,0.2400000000000091,0.41257142857143947)"><svg viewBox="0 0 395.52 203.17485714285712" height="203.17485714285712" width="395.52"><g><svg viewBox="0 0 395.52 203.17485714285712" height="203.17485714285712" width="395.52"><g><svg viewBox="0 0 395.52 203.17485714285712" height="203.17485714285712" width="395.52"><g id="textblocktransform"><svg viewBox="0 0 395.52 203.17485714285712" height="203.17485714285712" width="395.52" id="textblock"><g><svg viewBox="0 0 395.52 203.17485714285712" height="203.17485714285712" width="395.52"><g transform="matrix(1,0,0,1,0,0)"><svg width="395.52" viewBox="0.6500000000000004 -39.5 170.84999999999997 83.3" height="203.17485714285712" data-palette-color="#e9e4de"><svg></svg><svg></svg><g class="wordmark-text-0" data-fill-palette-color="primary" id="text-0"><path d="M15 0h-6.7l-7.65-37.2 8-0.3 3.95 22.45 4.25-22.15 6-0.3 3.95 22.7 4.75-22.4 6.75-0.3-8.05 37.5h-7.25l-3.95-22.9zM46.35 0.65c-1.2 0-2.283-0.377-3.25-1.13-0.967-0.747-1.717-1.763-2.25-3.05-0.533-1.28-0.8-2.72-0.8-4.32v0c0-3.633 1.243-6.193 3.73-7.68 2.48-1.48 5.37-2.32 8.67-2.52v0c0-1.8-0.117-3.133-0.35-4-0.233-0.867-0.8-1.3-1.7-1.3v0c-0.767 0-1.35 0.3-1.75 0.9-0.4 0.6-0.65 1.367-0.75 2.3v0l-6.85-1.2c0.333-2.567 1.383-4.4 3.15-5.5 1.767-1.1 3.833-1.65 6.2-1.65v0c3.033 0 5.31 0.8 6.83 2.4 1.513 1.6 2.27 3.683 2.27 6.25v0 14.55c0 1.567 0.25 3.233 0.75 5v0l-6.85 0.6-0.8-3.45c-0.6 1.067-1.483 1.967-2.65 2.7-1.167 0.733-2.367 1.1-3.6 1.1zM49.6-4.35c0.567 0 1.043-0.133 1.43-0.4 0.38-0.267 0.853-0.7 1.42-1.3v0-7.8c-1.667 0-3 0.45-4 1.35-1 0.9-1.5 2.3-1.5 4.2v0c0 1.267 0.227 2.24 0.68 2.92 0.447 0.687 1.103 1.03 1.97 1.03zM72.35-0.3l-7 0.6v-36.9l7-0.9zM85.5-32.05l-7 0.3v-7.25l7-0.5zM85.45-0.3l-7 0.6v-27.85l7-0.6zM98.45 0.65c-5.4 0-8.1-4.9-8.1-14.7v0c0-5.1 0.667-8.783 2-11.05 1.333-2.267 3.417-3.4 6.25-3.4v0c1.2 0 2.35 0.39 3.45 1.17 1.1 0.787 1.9 1.763 2.4 2.93v0-12.2l7.05-0.9v37.2l-5.3 0.6-1.75-3.8c-0.333 1.233-0.95 2.233-1.85 3-0.9 0.767-2.283 1.15-4.15 1.15zM101.05-4.35c1 0 1.817-0.56 2.45-1.68 0.633-1.113 0.95-3.003 0.95-5.67v0-9.4c-0.967-1.5-2.1-2.25-3.4-2.25v0c-1.1 0-1.907 0.39-2.42 1.17-0.52 0.787-0.853 1.813-1 3.08-0.153 1.267-0.23 2.95-0.23 5.05v0c0 2.133 0.077 3.867 0.23 5.2 0.147 1.333 0.487 2.417 1.02 3.25 0.533 0.833 1.333 1.25 2.4 1.25z" fill="#e9e4de" fill-rule="nonzero" stroke="none" stroke-width="1" stroke-linecap="butt" stroke-linejoin="miter" stroke-miterlimit="10" stroke-dasharray="" stroke-dashoffset="0" font-family="none" font-weight="none" font-size="none" text-anchor="none" style="mix-blend-mode: normal" data-fill-palette-color="primary" opacity="1"></path><path d="M3.5 43.15v-37.5h8.4c4.533 0 7.833 0.883 9.9 2.65 2.067 1.767 3.1 4.1 3.1 7v0c0 1.833-0.357 3.45-1.07 4.85-0.72 1.4-1.713 2.417-2.98 3.05v0c1.6 0.833 2.867 1.94 3.8 3.32 0.933 1.387 1.4 3.43 1.4 6.13v0c0 7-5.517 10.5-16.55 10.5v0zM10.6 20.9h1.75c1.933 0 3.377-0.317 4.33-0.95 0.947-0.633 1.42-1.933 1.42-3.9v0c0-1.733-0.54-2.927-1.62-3.58-1.087-0.647-2.563-0.97-4.43-0.97v0h-1.45zM10.85 37.3h1.35c2.4 0 4.133-0.593 5.2-1.78 1.067-1.18 1.6-2.47 1.6-3.87v0c0-2.167-0.573-3.61-1.72-4.33-1.153-0.713-2.763-1.07-4.83-1.07v0h-1.6zM39.55 43.8c-3.333 0-5.883-1.327-7.65-3.98-1.767-2.647-2.65-6.17-2.65-10.57v0c0-4.467 0.9-8.017 2.7-10.65 1.8-2.633 4.417-3.95 7.85-3.95v0c3.267 0 5.767 1.317 7.5 3.95 1.733 2.633 2.6 6.183 2.6 10.65v0c0 0.267-0.05 0.457-0.15 0.57-0.1 0.12-0.15 0.197-0.15 0.23v0h-13.35c0 2.167 0.283 4.14 0.85 5.92 0.567 1.787 1.433 2.68 2.6 2.68v0c1.3 0 2.267-0.75 2.9-2.25 0.633-1.5 0.967-2.283 1-2.35v0l5.3 2c-0.7 2.4-1.817 4.29-3.35 5.67-1.533 1.387-3.533 2.08-6 2.08zM36.25 26h6.75c0-2-0.267-3.583-0.8-4.75-0.533-1.167-1.367-1.75-2.5-1.75v0c-0.567 0-1.117 0.283-1.65 0.85-0.533 0.567-0.967 1.35-1.3 2.35-0.333 1-0.5 2.1-0.5 3.3zM63.75 43.7c-2.267 0-4.183-0.577-5.75-1.73-1.567-1.147-2.35-3.187-2.35-6.12v0-15.55h-3.9l0.3-5.3h3.8l0.7-6.1 6.1-0.85v6.95h5.8l-0.3 5.3h-5.45v15.5c0 1 0.25 1.717 0.75 2.15 0.5 0.433 1.233 0.65 2.2 0.65v0c0.533 0 1.433-0.1 2.7-0.3v0 4.85c-0.133 0.033-0.657 0.133-1.57 0.3-0.92 0.167-1.93 0.25-3.03 0.25zM81.75 43.7c-2.267 0-4.183-0.577-5.75-1.73-1.567-1.147-2.35-3.187-2.35-6.12v0-15.55h-3.9l0.3-5.3h3.8l0.7-6.1 6.1-0.85v6.95h5.8l-0.3 5.3h-5.45v15.5c0 1 0.25 1.717 0.75 2.15 0.5 0.433 1.233 0.65 2.2 0.65v0c0.533 0 1.433-0.1 2.7-0.3v0 4.85c-0.133 0.033-0.66 0.133-1.58 0.3-0.913 0.167-1.92 0.25-3.02 0.25zM94.75 43.8c-1.2 0-2.283-0.377-3.25-1.13-0.967-0.747-1.717-1.763-2.25-3.05-0.533-1.28-0.8-2.72-0.8-4.32v0c0-3.633 1.24-6.193 3.72-7.68 2.487-1.48 5.38-2.32 8.68-2.52v0c0-1.8-0.117-3.133-0.35-4-0.233-0.867-0.8-1.3-1.7-1.3v0c-0.767 0-1.35 0.3-1.75 0.9-0.4 0.6-0.65 1.367-0.75 2.3v0l-6.85-1.2c0.333-2.567 1.383-4.4 3.15-5.5 1.767-1.1 3.833-1.65 6.2-1.65v0c3.033 0 5.31 0.8 6.83 2.4 1.513 1.6 2.27 3.683 2.27 6.25v0 14.55c0 1.567 0.25 3.233 0.75 5v0l-6.85 0.6-0.8-3.45c-0.6 1.067-1.483 1.967-2.65 2.7-1.167 0.733-2.367 1.1-3.6 1.1zM98 38.8c0.567 0 1.04-0.133 1.42-0.4 0.387-0.267 0.863-0.7 1.43-1.3v0-7.8c-1.667 0-3 0.45-4 1.35-1 0.9-1.5 2.3-1.5 4.2v0c0 1.267 0.223 2.24 0.67 2.92 0.453 0.687 1.113 1.03 1.98 1.03zM120.75 11.1l-7 0.3v-7.25l7-0.5zM120.7 42.85l-7 0.6v-27.85l7-0.6zM135.8 43.8c-3.333 0-5.883-1.327-7.65-3.98-1.767-2.647-2.65-6.17-2.65-10.57v0c0-4.467 0.9-8.017 2.7-10.65 1.8-2.633 4.417-3.95 7.85-3.95v0c3.267 0 5.767 1.317 7.5 3.95 1.733 2.633 2.6 6.183 2.6 10.65v0c0 0.267-0.05 0.457-0.15 0.57-0.1 0.12-0.15 0.197-0.15 0.23v0h-13.35c0 2.167 0.283 4.14 0.85 5.92 0.567 1.787 1.433 2.68 2.6 2.68v0c1.3 0 2.267-0.75 2.9-2.25 0.633-1.5 0.967-2.283 1-2.35v0l5.3 2c-0.7 2.4-1.817 4.29-3.35 5.67-1.533 1.387-3.533 2.08-6 2.08zM132.5 26h6.75c0-2-0.267-3.583-0.8-4.75-0.533-1.167-1.367-1.75-2.5-1.75v0c-0.567 0-1.117 0.283-1.65 0.85-0.533 0.567-0.967 1.35-1.3 2.35-0.333 1-0.5 2.1-0.5 3.3zM163.45 43.8c-1.867 0-3.25-0.377-4.15-1.13-0.9-0.747-1.533-1.753-1.9-3.02v0l-1.7 3.8-5.3-0.6v-36.3l7-0.9v12.95c0.833-1.2 1.883-2.16 3.15-2.88 1.267-0.713 2.6-1.07 4-1.07v0c2.167 0 3.867 1.14 5.1 3.42 1.233 2.287 1.85 5.963 1.85 11.03v0c0 9.8-2.683 14.7-8.05 14.7zM160.85 38.8c1.533 0 2.523-0.817 2.97-2.45 0.453-1.633 0.68-4.05 0.68-7.25v0c0-2.233-0.093-3.943-0.28-5.13-0.18-1.18-0.493-2.03-0.94-2.55-0.453-0.513-1.113-0.77-1.98-0.77v0c-0.6 0-1.3 0.217-2.1 0.65-0.8 0.433-1.4 0.85-1.8 1.25v0 8.9c0 2.667 0.327 4.557 0.98 5.67 0.647 1.12 1.47 1.68 2.47 1.68z" fill="#e9e4de" fill-rule="nonzero" stroke="none" stroke-width="1" stroke-linecap="butt" stroke-linejoin="miter" stroke-miterlimit="10" stroke-dasharray="" stroke-dashoffset="0" font-family="none" font-weight="none" font-size="none" text-anchor="none" style="mix-blend-mode: normal" data-fill-palette-color="primary" opacity="1"></path></g></svg></g></svg></g></svg></g></svg></g></svg></g><defs></defs></svg><rect width="395.52" height="203.17485714285712" fill="none" stroke="none" visibility="hidden"></rect></g></svg></g></svg>