<svg xmlns="http://www.w3.org/2000/svg" version="1.1" xmlns:xlink="http://www.w3.org/1999/xlink" xmlns:svgjs="http://svgjs.dev/svgjs" width="2000" height="1500" viewBox="0 0 2000 1500"><rect width="2000" height="1500" fill="#14293a"></rect><g transform="matrix(0.75,0,0,0.75,249.090909090909,365.2097712729369)"><svg viewBox="0 0 396 203" data-background-color="#14293a" preserveAspectRatio="xMidYMid meet" height="1025" width="2000" xmlns="http://www.w3.org/2000/svg" xmlns:xlink="http://www.w3.org/1999/xlink"><g id="tight-bounds" transform="matrix(1,0,0,1,0.2400000000000091,0.10964739069112284)"><svg viewBox="0 0 395.52 202.78070521861775" height="202.78070521861775" width="395.52"><g><svg viewBox="0 0 395.52 202.78070521861775" height="202.78070521861775" width="395.52"><g><svg viewBox="0 0 395.52 202.78070521861775" height="202.78070521861775" width="395.52"><g id="textblocktransform"><svg viewBox="0 0 395.52 202.78070521861775" height="202.78070521861775" width="395.52" id="textblock"><g><svg viewBox="0 0 395.52 202.78070521861775" height="202.78070521861775" width="395.52"><g transform="matrix(1,0,0,1,0,0)"><svg width="395.52" viewBox="3 -35.01 69.24 35.5" height="202.78070521861775" data-palette-color="#e9e4de"><path d="M37.99-35.01L37.99-10.01Q37.99-7.84 37.17-5.92 36.35-4 34.92-2.58 33.5-1.15 31.58-0.33 29.66 0.49 27.49 0.49L27.49 0.49Q25.54 0.49 23.74-0.2 21.95-0.88 20.51-2.2L20.51-2.2Q19.07-0.88 17.26-0.2 15.45 0.49 13.5 0.49L13.5 0.49Q11.33 0.49 9.41-0.33 7.5-1.15 6.07-2.58 4.64-4 3.82-5.92 3-7.84 3-10.01L3-10.01 3-35.01 10.01-35.01 10.01-10.01Q10.01-9.28 10.28-8.63 10.55-7.98 11.02-7.51 11.5-7.03 12.13-6.76 12.77-6.49 13.5-6.49L13.5-6.49Q14.23-6.49 14.87-6.76 15.5-7.03 15.98-7.51 16.46-7.98 16.72-8.63 16.99-9.28 16.99-10.01L16.99-10.01 16.99-35.01 24-35.01 24-10.01Q24-9.28 24.27-8.63 24.54-7.98 25.01-7.51 25.49-7.03 26.12-6.76 26.76-6.49 27.49-6.49L27.49-6.49Q28.22-6.49 28.86-6.76 29.49-7.03 29.97-7.51 30.44-7.98 30.73-8.63 31.01-9.28 31.01-10.01L31.01-10.01 31.01-35.01 37.99-35.01ZM72.24-10.5L72.24-10.5Q72.24-8.33 71.41-6.42 70.58-4.52 69.15-3.09 67.72-1.66 65.82-0.83 63.91 0 61.74 0L61.74 0 44.24 0 44.24-35.01 61.74-35.01Q63.91-35.01 65.82-34.18 67.72-33.35 69.15-31.92 70.58-30.49 71.41-28.59 72.24-26.68 72.24-24.51L72.24-24.51Q72.24-23.54 71.97-22.51 71.7-21.48 71.21-20.53 70.73-19.58 70.04-18.8 69.36-18.02 68.53-17.5L68.53-17.5Q69.38-17.04 70.07-16.25 70.75-15.45 71.24-14.5 71.73-13.55 71.98-12.51 72.24-11.47 72.24-10.5ZM51.24-13.99L51.24-7.01 61.74-7.01Q62.47-7.01 63.11-7.28 63.74-7.54 64.22-8.02 64.69-8.5 64.96-9.13 65.23-9.77 65.23-10.5L65.23-10.5Q65.23-11.23 64.96-11.87 64.69-12.5 64.22-12.98 63.74-13.45 63.11-13.72 62.47-13.99 61.74-13.99L61.74-13.99 51.24-13.99ZM51.24-28L51.24-21 61.74-21Q62.47-21 63.11-21.26 63.74-21.53 64.22-22.01 64.69-22.49 64.96-23.13 65.23-23.78 65.23-24.51L65.23-24.51Q65.23-25.24 64.96-25.88 64.69-26.51 64.22-26.99 63.74-27.47 63.11-27.73 62.47-28 61.74-28L61.74-28 51.24-28Z" opacity="1" transform="matrix(1,0,0,1,0,0)" fill="#e9e4de" class="wordmark-text-0" data-fill-palette-color="primary" id="text-0"></path></svg></g></svg></g></svg></g></svg></g></svg></g><defs></defs></svg><rect width="395.52" height="202.78070521861775" fill="none" stroke="none" visibility="hidden"></rect></g></svg></g></svg>